<mxfile modified="2024-03-14T02:29:54.268Z" host="app.diagrams.net" agent="Mozilla/5.0 (Macintosh; Intel Mac OS X 10_15_7) AppleWebKit/537.36 (KHTML, like Gecko) Chrome/122.0.0.0 Safari/537.36" etag="jQY6uRQrwtSUNd-V7e-_" version="24.0.6" type="github">
  <diagram id="Ht1M8jgEwFfnCIfOTk4-" name="Page-1">
    <mxGraphModel dx="1193" dy="623" grid="1" gridSize="10" guides="1" tooltips="1" connect="1" arrows="1" fold="1" page="1" pageScale="1" pageWidth="1169" pageHeight="827" math="0" shadow="0">
      <root>
        <mxCell id="0" />
        <mxCell id="1" parent="0" />
        <mxCell id="RMJp50zracB8sE8Sel0m-4" value="users" style="sketch=0;outlineConnect=0;gradientColor=none;fontColor=#545B64;strokeColor=none;fillColor=#879196;dashed=0;verticalLabelPosition=bottom;verticalAlign=top;align=center;html=1;fontSize=12;fontStyle=0;aspect=fixed;shape=mxgraph.aws4.illustration_users;pointerEvents=1" vertex="1" parent="1">
          <mxGeometry x="113.5" y="305" width="65" height="65" as="geometry" />
        </mxCell>
        <mxCell id="iRrj6lCOa5T8aYDZ4Gto-3" value="" style="rounded=0;whiteSpace=wrap;html=1;fontSize=12;spacingLeft=7;" vertex="1" parent="1">
          <mxGeometry x="300" y="100" width="600" height="430" as="geometry" />
        </mxCell>
        <mxCell id="iRrj6lCOa5T8aYDZ4Gto-6" value="&lt;font style=&quot;font-size: 14px;&quot;&gt;Frontend&lt;/font&gt;" style="text;html=1;align=left;verticalAlign=top;whiteSpace=wrap;rounded=0;strokeColor=default;horizontal=1;spacing=0;spacingTop=3;spacingLeft=10;" vertex="1" parent="1">
          <mxGeometry x="310" y="180" width="180" height="330" as="geometry" />
        </mxCell>
        <mxCell id="iRrj6lCOa5T8aYDZ4Gto-52" style="edgeStyle=orthogonalEdgeStyle;rounded=0;orthogonalLoop=1;jettySize=auto;html=1;" edge="1" parent="1" source="iRrj6lCOa5T8aYDZ4Gto-15" target="iRrj6lCOa5T8aYDZ4Gto-38">
          <mxGeometry relative="1" as="geometry">
            <Array as="points">
              <mxPoint x="635" y="250" />
            </Array>
          </mxGeometry>
        </mxCell>
        <mxCell id="iRrj6lCOa5T8aYDZ4Gto-15" value="JavaScript&lt;div&gt;Next.js&lt;/div&gt;" style="outlineConnect=0;dashed=0;verticalLabelPosition=bottom;verticalAlign=top;align=center;html=1;shape=mxgraph.aws3.android;fillColor=#205E00;gradientColor=none;" vertex="1" parent="1">
          <mxGeometry x="380.5" y="230" width="38.5" height="44" as="geometry" />
        </mxCell>
        <mxCell id="iRrj6lCOa5T8aYDZ4Gto-19" value="" style="rounded=0;whiteSpace=wrap;html=1;" vertex="1" parent="1">
          <mxGeometry x="320" y="320" width="160" height="150" as="geometry" />
        </mxCell>
        <mxCell id="iRrj6lCOa5T8aYDZ4Gto-17" value="&lt;h1 style=&quot;margin-top: 0px;&quot;&gt;&lt;font style=&quot;font-size: 16px;&quot;&gt;Styles&lt;/font&gt;&lt;/h1&gt;&lt;div&gt;&lt;br&gt;&lt;/div&gt;" style="text;html=1;whiteSpace=wrap;overflow=hidden;rounded=0;align=center;labelBorderColor=none;labelBackgroundColor=none;" vertex="1" parent="1">
          <mxGeometry x="321.75" y="320" width="150" height="120" as="geometry" />
        </mxCell>
        <mxCell id="iRrj6lCOa5T8aYDZ4Gto-18" value="" style="shape=image;html=1;verticalAlign=top;verticalLabelPosition=bottom;labelBackgroundColor=#ffffff;imageAspect=0;aspect=fixed;image=https://cdn0.iconfinder.com/data/icons/long-shadow-web-icons/512/css-128.png" vertex="1" parent="1">
          <mxGeometry x="330" y="370" width="38" height="38" as="geometry" />
        </mxCell>
        <mxCell id="iRrj6lCOa5T8aYDZ4Gto-21" value="" style="shape=image;html=1;verticalAlign=top;verticalLabelPosition=bottom;labelBackgroundColor=#ffffff;imageAspect=0;aspect=fixed;image=https://cdn3.iconfinder.com/data/icons/brands-pack/240/sass-128.png" vertex="1" parent="1">
          <mxGeometry x="381" y="370" width="38" height="38" as="geometry" />
        </mxCell>
        <mxCell id="iRrj6lCOa5T8aYDZ4Gto-23" value="CSS Modules" style="text;html=1;align=center;verticalAlign=middle;whiteSpace=wrap;rounded=0;" vertex="1" parent="1">
          <mxGeometry x="420" y="374" width="60" height="30" as="geometry" />
        </mxCell>
        <mxCell id="iRrj6lCOa5T8aYDZ4Gto-24" value="" style="shape=image;html=1;verticalAlign=top;verticalLabelPosition=bottom;labelBackgroundColor=none;imageAspect=0;aspect=fixed;image=https://cdn2.iconfinder.com/data/icons/boxicons-logos/24/bxl-tailwind-css-128.png;imageBackground=#000000;imageBorder=none;" vertex="1" parent="1">
          <mxGeometry x="360" y="420" width="37" height="37" as="geometry" />
        </mxCell>
        <mxCell id="iRrj6lCOa5T8aYDZ4Gto-27" value="" style="edgeStyle=orthogonalEdgeStyle;rounded=0;orthogonalLoop=1;jettySize=auto;html=1;entryX=0;entryY=0.5;entryDx=0;entryDy=0;" edge="1" parent="1" target="iRrj6lCOa5T8aYDZ4Gto-6">
          <mxGeometry relative="1" as="geometry">
            <mxPoint x="190" y="345" as="sourcePoint" />
            <mxPoint x="230" y="380" as="targetPoint" />
          </mxGeometry>
        </mxCell>
        <mxCell id="iRrj6lCOa5T8aYDZ4Gto-35" value="" style="edgeStyle=orthogonalEdgeStyle;rounded=0;orthogonalLoop=1;jettySize=auto;html=1;entryX=0.5;entryY=0;entryDx=0;entryDy=0;" edge="1" parent="1" source="iRrj6lCOa5T8aYDZ4Gto-28" target="iRrj6lCOa5T8aYDZ4Gto-3">
          <mxGeometry relative="1" as="geometry">
            <mxPoint x="600" y="55" as="targetPoint" />
          </mxGeometry>
        </mxCell>
        <mxCell id="iRrj6lCOa5T8aYDZ4Gto-28" value="" style="verticalLabelPosition=bottom;html=1;verticalAlign=top;align=center;strokeColor=none;fillColor=#00BEF2;shape=mxgraph.azure.github_code;pointerEvents=1;" vertex="1" parent="1">
          <mxGeometry x="130" y="30" width="50" height="50" as="geometry" />
        </mxCell>
        <mxCell id="iRrj6lCOa5T8aYDZ4Gto-29" value="" style="image;sketch=0;aspect=fixed;html=1;points=[];align=center;fontSize=12;image=img/lib/mscae/Docker.svg;" vertex="1" parent="1">
          <mxGeometry x="324" y="120" width="50" height="41" as="geometry" />
        </mxCell>
        <mxCell id="iRrj6lCOa5T8aYDZ4Gto-33" value="" style="edgeStyle=orthogonalEdgeStyle;rounded=0;orthogonalLoop=1;jettySize=auto;html=1;" edge="1" parent="1" source="iRrj6lCOa5T8aYDZ4Gto-31" target="iRrj6lCOa5T8aYDZ4Gto-28">
          <mxGeometry relative="1" as="geometry" />
        </mxCell>
        <mxCell id="iRrj6lCOa5T8aYDZ4Gto-31" value="開発者" style="sketch=0;aspect=fixed;pointerEvents=1;shadow=0;dashed=0;html=1;strokeColor=none;labelPosition=center;verticalLabelPosition=bottom;verticalAlign=top;align=center;fillColor=#00188D;shape=mxgraph.azure.user" vertex="1" parent="1">
          <mxGeometry x="131.5" y="180" width="47" height="50" as="geometry" />
        </mxCell>
        <mxCell id="iRrj6lCOa5T8aYDZ4Gto-43" value="" style="edgeStyle=orthogonalEdgeStyle;rounded=0;orthogonalLoop=1;jettySize=auto;html=1;exitX=0.426;exitY=0.003;exitDx=0;exitDy=0;exitPerimeter=0;" edge="1" parent="1" source="iRrj6lCOa5T8aYDZ4Gto-38">
          <mxGeometry relative="1" as="geometry">
            <mxPoint x="626.0071942446042" y="335" as="sourcePoint" />
            <mxPoint x="419" y="260" as="targetPoint" />
            <Array as="points">
              <mxPoint x="626" y="260" />
            </Array>
          </mxGeometry>
        </mxCell>
        <mxCell id="iRrj6lCOa5T8aYDZ4Gto-37" value="&lt;font style=&quot;font-size: 14px;&quot;&gt;Backend&lt;/font&gt;" style="text;html=1;align=left;verticalAlign=top;whiteSpace=wrap;rounded=0;strokeColor=default;horizontal=1;spacing=0;spacingTop=3;spacingLeft=10;" vertex="1" parent="1">
          <mxGeometry x="540" y="180" width="180" height="330" as="geometry" />
        </mxCell>
        <mxCell id="iRrj6lCOa5T8aYDZ4Gto-46" style="edgeStyle=orthogonalEdgeStyle;rounded=0;orthogonalLoop=1;jettySize=auto;html=1;" edge="1" parent="1">
          <mxGeometry relative="1" as="geometry">
            <mxPoint x="655" y="364" as="sourcePoint" />
            <mxPoint x="800" y="364" as="targetPoint" />
            <Array as="points">
              <mxPoint x="750" y="364" />
              <mxPoint x="750" y="364" />
            </Array>
          </mxGeometry>
        </mxCell>
        <mxCell id="iRrj6lCOa5T8aYDZ4Gto-62" style="edgeStyle=orthogonalEdgeStyle;rounded=0;orthogonalLoop=1;jettySize=auto;html=1;" edge="1" parent="1" source="iRrj6lCOa5T8aYDZ4Gto-38" target="iRrj6lCOa5T8aYDZ4Gto-55">
          <mxGeometry relative="1" as="geometry">
            <Array as="points">
              <mxPoint x="627" y="456" />
              <mxPoint x="627" y="456" />
            </Array>
          </mxGeometry>
        </mxCell>
        <mxCell id="iRrj6lCOa5T8aYDZ4Gto-38" value="" style="shape=image;html=1;verticalAlign=top;verticalLabelPosition=bottom;labelBackgroundColor=#ffffff;imageAspect=0;aspect=fixed;image=https://cdn1.iconfinder.com/data/icons/ionicons-fill-vol-2/512/logo-laravel-128.png;imageBackground=#FF0000;" vertex="1" parent="1">
          <mxGeometry x="605" y="345" width="50" height="50" as="geometry" />
        </mxCell>
        <mxCell id="iRrj6lCOa5T8aYDZ4Gto-48" style="edgeStyle=orthogonalEdgeStyle;rounded=0;orthogonalLoop=1;jettySize=auto;html=1;" edge="1" parent="1">
          <mxGeometry relative="1" as="geometry">
            <mxPoint x="800" y="373.04255319148933" as="sourcePoint" />
            <mxPoint x="655" y="373" as="targetPoint" />
          </mxGeometry>
        </mxCell>
        <mxCell id="iRrj6lCOa5T8aYDZ4Gto-45" value="" style="outlineConnect=0;dashed=0;verticalLabelPosition=bottom;verticalAlign=top;align=center;html=1;shape=mxgraph.aws3.mysql_db_instance;fillColor=#2E73B8;gradientColor=none;" vertex="1" parent="1">
          <mxGeometry x="800" y="343.75" width="48.84" height="52.5" as="geometry" />
        </mxCell>
        <mxCell id="iRrj6lCOa5T8aYDZ4Gto-61" style="edgeStyle=orthogonalEdgeStyle;rounded=0;orthogonalLoop=1;jettySize=auto;html=1;" edge="1" parent="1" source="iRrj6lCOa5T8aYDZ4Gto-55" target="iRrj6lCOa5T8aYDZ4Gto-38">
          <mxGeometry relative="1" as="geometry">
            <Array as="points">
              <mxPoint x="635" y="458" />
              <mxPoint x="635" y="458" />
            </Array>
          </mxGeometry>
        </mxCell>
        <mxCell id="iRrj6lCOa5T8aYDZ4Gto-55" value="" style="shape=image;html=1;verticalAlign=top;verticalLabelPosition=bottom;labelBackgroundColor=#ffffff;imageAspect=0;aspect=fixed;image=https://cdn1.iconfinder.com/data/icons/unicons-line-vol-3/24/discord-128.png" vertex="1" parent="1">
          <mxGeometry x="588" y="540" width="84" height="84" as="geometry" />
        </mxCell>
      </root>
    </mxGraphModel>
  </diagram>
</mxfile>
